<?xml version="1.0" encoding="UTF-8" standalone="no"?>
<!DOCTYPE svg PUBLIC "-//W3C//DTD SVG 1.1//EN" "http://www.w3.org/Graphics/SVG/1.1/DTD/svg11.dtd">
<svg version="1.1" xmlns="http://www.w3.org/2000/svg" xmlns:xlink="http://www.w3.org/1999/xlink" preserveAspectRatio="xMidYMid meet" viewBox="0 0 1024 1024" width="1024" height="1024"><defs><path d="M1024 512C1024 794.58 794.58 1024 512 1024C229.42 1024 0 794.58 0 512C0 229.42 229.42 0 512 0C794.58 0 1024 229.42 1024 512Z" id="ag3nHvobh"></path><path d="M502 302C502 412.38 412.39 502 302 502C191.62 502 102 412.38 102 302C102 191.62 191.62 102 302 102C412.39 102 502 191.62 502 302Z" id="b2vUaZe8J"></path><path d="M922 302C922 412.38 832.39 502 722 502C611.62 502 522 412.38 522 302C522 191.62 611.62 102 722 102C832.39 102 922 191.62 922 302Z" id="c1V45yy2KV"></path><path d="M922 722C922 832.38 832.39 922 722 922C611.62 922 522 832.38 522 722C522 611.62 611.62 522 722 522C832.39 522 922 611.62 922 722Z" id="a1yO5xFuC1"></path><path d="M502 722C502 832.38 412.39 922 302 922C191.62 922 102 832.38 102 722C102 611.62 191.62 522 302 522C412.39 522 502 611.62 502 722Z" id="asIczFH5X"></path></defs><g><g><g><use xlink:href="#ag3nHvobh" opacity="1" fill="#181c1e" fill-opacity="1"></use></g><g><use xlink:href="#b2vUaZe8J" opacity="1" fill="#831515" fill-opacity="1"></use></g><g><use xlink:href="#c1V45yy2KV" opacity="1" fill="#c99917" fill-opacity="1"></use></g><g><use xlink:href="#a1yO5xFuC1" opacity="1" fill="#831515" fill-opacity="1"></use></g><g><use xlink:href="#asIczFH5X" opacity="1" fill="#c99917" fill-opacity="1"></use></g></g></g></svg>